<?xml version="1.0" encoding="utf-8"?>
<!-- Generator: Adobe Illustrator 23.0.4, SVG Export Plug-In . SVG Version: 6.00 Build 0)  -->
<svg version="1.1" id="Layer_1" xmlns="http://www.w3.org/2000/svg" xmlns:xlink="http://www.w3.org/1999/xlink" x="0px" y="0px"
	 viewBox="0 0 468.5 174.7" style="enable-background:new 0 0 468.5 174.7;" xml:space="preserve">
<style type="text/css">
	.st0{fill:#FFFFFF;}
</style>
<g transform="translate(-63.83 -56.79)">
	<path class="st0" d="M63.8,58.7h61c32.4,0,52.2,16.1,52.2,43.9c0,15.9-11.2,28.6-22.7,33.4c17.6,5.9,30.3,19.8,30.3,43.7
		c0,30.7-20.7,49.8-55.9,49.8H63.8L63.8,58.7z M124.3,129.5c20.5,0,32-8.8,32-26.4S144.9,77,124.3,77H84.6v52.5L124.3,129.5
		L124.3,129.5z M125.3,210.8c25.1,0,38.1-11,38.1-31.2c0-20.5-12.9-31.5-38.1-31.5H84.6v62.7L125.3,210.8z"/>
	<path class="st0" d="M288.8,56.8c58.1,0,67.1,42.7,80,42.7c12.7,0,21.7-42.7,79.8-42.7c47.3,0,83.7,36.8,83.7,87.3
		c0,50.3-36.4,87.3-83.7,87.3c-58.1,0-67.1-42.7-79.8-42.7c-12.9,0-22,42.7-80,42.7c-47.3,0-83.7-37.1-83.7-87.4
		C205.1,93.6,241.4,56.8,288.8,56.8L288.8,56.8z M448.6,75.3c-49.5,0-52,46.6-79.8,46.6c-28.1,0-30.7-46.6-80-46.6
		c-34.9,0-62.2,29.3-62.2,68.8s27.3,68.9,62.2,68.9c49.3,0,52-46.6,80-46.6c27.8,0,30.3,46.6,79.8,46.6c34.6,0,62.2-29.3,62.2-68.8
		S483.2,75.3,448.6,75.3L448.6,75.3z"/>
</g>
</svg>
