<svg viewBox="0 0 468.47 174.7" xmlns="http://www.w3.org/2000/svg"><g transform="translate(-63.83 -56.79)"><path d="m63.83 58.74h61c32.45 0 52.21 16.11 52.21 43.92 0 15.86-11.22 28.55-22.69 33.43 17.57 5.86 30.26 19.77 30.26 43.68 0 30.74-20.74 49.78-55.88 49.78h-64.9zm60.51 70.77c20.49 0 32-8.79 32-26.36s-11.47-26.1-32-26.1h-39.77v52.45h39.77zm1 81.25c25.14 0 38.07-11 38.07-31.23 0-20.5-12.93-31.48-38.07-31.48h-40.77v62.71z"/><path d="m288.78 56.79c58.07 0 67.1 42.7 80 42.7 12.69 0 21.72-42.7 79.8-42.7 47.33 0 83.69 36.84 83.69 87.35 0 50.27-36.36 87.35-83.69 87.35-58.08 0-67.11-42.69-79.8-42.69-12.93 0-22 42.69-80 42.69-47.34 0-83.69-37.08-83.69-87.35 0-50.5 36.35-87.35 83.69-87.35zm159.83 18.54c-49.54 0-52 46.61-79.8 46.61-28.06 0-30.74-46.61-80-46.61-34.89 0-62.22 29.29-62.22 68.81s27.3 68.86 62.19 68.86c49.29 0 52-46.6 80-46.6 27.82 0 30.26 46.6 79.8 46.6 34.64 0 62.21-29.28 62.21-68.81s-27.54-68.86-62.18-68.86z"/></g></svg>